<svg xmlns="http://www.w3.org/2000/svg" viewBox="0 0 30 20">
  <rect width="30" height="20" fill="#DE2910"/>
  <polygon fill="#FFDE00" points="5.0000,12.0000 4.3265,14.0729 2.1468,14.0729 3.9102,15.3541 3.2366,17.4271 5.0000,16.1459 6.7634,17.4271 6.0898,15.3541 7.8532,14.0729 5.6735,14.0729"/>
  <polygon fill="#FFDE00" points="9.1425,17.4855 9.6195,18.0335 9.2457,18.6565 9.9143,18.3722 10.3913,18.9203 10.3275,18.1965 10.9961,17.9122 10.2881,17.7492 10.2243,17.0255 9.8505,17.6485"/>
  <polygon fill="#FFDE00" points="11.0101,15.8586 11.6623,16.1786 11.5596,16.8978 12.0655,16.3763 12.7178,16.6963 12.3781,16.0540 12.8840,15.5325 12.1682,15.6571 11.8286,15.0148 11.7258,15.7340"/>
  <polygon fill="#FFDE00" points="11.0385,13.2747 11.7646,13.3008 11.9641,13.9994 12.2133,13.3169 12.9394,13.3429 12.3673,12.8951 12.6164,12.2126 12.0137,12.6183 11.4416,12.1704 11.6412,12.8690"/>
  <polygon fill="#FFDE00" points="9.2191,11.6247 9.8990,11.3684 10.3528,11.9357 10.3191,11.2099 10.9989,10.9536 10.2983,10.7614 10.2645,10.0356 9.8652,10.6426 9.1646,10.4504 9.6184,11.0177"/>
</svg>
